<svg xmlns="http://www.w3.org/2000/svg" fill="#be8553" xmlns:xlink="http://www.w3.org/1999/xlink" id="Layer_1" x="0px" y="0px" viewBox="0 0 511.999 511.999" style="enable-background:new 0 0 511.999 511.999;" xml:space="preserve">
	<g>
		<g>
			<path d="M502.991,181.672l-13.02-51.781c-0.712-2.832-2.987-5.003-5.849-5.582c-2.865-0.58-5.803,0.536-7.561,2.868   l-42.889,56.896l-16.084,20.27l-81.421-42.775c-0.06-0.031-0.123-0.053-0.184-0.082c-0.178-0.087-0.358-0.169-0.542-0.243   c-0.097-0.038-0.195-0.076-0.293-0.11c-0.185-0.065-0.372-0.121-0.562-0.171c-0.093-0.024-0.185-0.052-0.278-0.073   c-0.232-0.053-0.465-0.092-0.702-0.122c-0.051-0.006-0.1-0.018-0.151-0.023c-0.27-0.029-0.542-0.046-0.817-0.046h-47.37v-23.53   c10.006-5.776,17.162-16.042,18.575-28.246c0.008-0.07,0.015-0.14,0.021-0.209l1.407-16.015h0.042   c11.113,0,20.154-9.04,20.154-20.154c0-9.927-7.221-18.18-16.682-19.833l0.285-3.242c1.114-12.674-3.176-25.323-11.769-34.706   C288.709,5.381,276.484,0,263.761,0h-16.153c-12.723,0-24.948,5.381-33.543,14.763c-8.593,9.382-12.884,22.032-11.769,34.706   l0.284,3.23c-9.495,1.625-16.752,9.893-16.752,19.844c0,11.113,9.04,20.153,20.154,20.153h0.114l1.407,16.015   c0.006,0.07,0.013,0.14,0.021,0.208c1.443,12.461,8.866,22.908,19.203,28.611v23.164h-47.368c-0.274,0-0.547,0.016-0.817,0.045   c-0.048,0.005-0.095,0.016-0.143,0.022c-0.24,0.03-0.477,0.071-0.712,0.123c-0.091,0.02-0.18,0.047-0.269,0.071   c-0.193,0.052-0.383,0.108-0.571,0.174c-0.097,0.034-0.192,0.07-0.288,0.108c-0.185,0.074-0.367,0.156-0.546,0.244   c-0.06,0.029-0.122,0.051-0.182,0.081L94.411,204.34l-16.089-20.276l-42.883-56.889c-1.757-2.332-4.697-3.446-7.56-2.867   c-2.862,0.579-5.137,2.751-5.849,5.582L9.009,181.672c-0.576,2.292-0.052,4.722,1.421,6.571l26.324,33.086   c0.001,0.002,0.003,0.003,0.004,0.004l24.167,30.457c7.521,9.477,18.564,14.485,29.803,14.484   c7.117-0.001,14.316-2.01,20.741-6.165l64.004-36.675l8.81,130.909l-56.689-18.097c-13.144-4.197-27.248,3.084-31.444,16.226   l-7.273,22.782c-2.243,7.023-1.616,14.499,1.765,21.05c3.381,6.552,9.111,11.395,16.134,13.637l23.387,7.466l-0.359,0.114   c-3.99,1.274-6.192,5.541-4.918,9.53l25.432,79.669c1.029,3.223,4.011,5.279,7.222,5.279c0.763,0,1.541-0.116,2.308-0.361   l21.024-6.712c1.916-0.612,3.511-1.96,4.433-3.747s1.096-3.867,0.484-5.784l-4.463-13.982l74.672-23.837l74.67,23.837   l-4.463,13.982c-0.612,1.916-0.438,3.997,0.484,5.784c0.922,1.787,2.517,3.135,4.433,3.747l21.024,6.712   c0.766,0.245,1.544,0.361,2.308,0.361c3.211,0,6.193-2.057,7.222-5.279l25.433-79.669c1.273-3.99-0.928-8.257-4.918-9.53   l-0.359-0.114l22.948-7.326c7.14-2.279,12.966-7.203,16.403-13.864c3.438-6.66,4.075-14.262,1.796-21.402l-7.011-21.961   c-2.065-6.468-6.526-11.746-12.56-14.86c-6.033-3.113-12.919-3.692-19.388-1.627l-56.024,17.885l8.606-130.773l63.926,36.631   c6.426,4.155,13.622,6.165,20.741,6.165c11.237,0,22.283-5.008,29.802-14.484l24.166-30.455c0.002-0.002,0.004-0.004,0.005-0.006   l26.324-33.086C503.042,186.393,503.567,183.964,502.991,181.672z M307.439,68.049c1.687,0.801,2.864,2.507,2.864,4.494   c0,2.294-1.566,4.212-3.679,4.791L307.439,68.049z M200.997,72.543c0-2.015,1.207-3.745,2.931-4.531l0.821,9.345   C202.598,76.804,200.997,74.865,200.997,72.543z M24.631,181.734l8.241-32.769l15.546,20.624l-21.662,14.815L24.631,181.734z    M103.741,247.055c-0.13,0.075-0.259,0.154-0.385,0.237c-9.991,6.548-23.126,4.427-30.551-4.93l-24.182-30.476   c0-0.001-0.001-0.001-0.001-0.001l-0.051-0.064l-12.325-15.534l21.013-14.371l29.178,36.772c2.265,2.855,6.24,3.695,9.467,2   l76.673-40.28l1.762,26.193L103.741,247.055z M296.597,175.862h27.896l-2.457,34.319c-0.047,0.653,0.003,1.297,0.119,1.923   l-9.68,147.103l-49.47,15.793c-0.908-19.05-0.241-106.801,0.491-166.108C280.243,205.807,293.478,192.597,296.597,175.862z    M256.001,194.421c-11.777,0-21.757-7.83-25.015-18.558h3.33c4.188,0,7.583-3.395,7.583-7.583c0-0.39-0.038-0.771-0.096-1.146   c0.057-0.374,0.095-0.753,0.095-1.143v-23.92c0.985,0.078,1.978,0.126,2.982,0.126h21.611c1.217,0,2.422-0.06,3.612-0.173v23.966   c0,0.39,0.038,0.771,0.096,1.146c-0.057,0.374-0.095,0.753-0.095,1.143c0,4.188,3.395,7.583,7.583,7.583h3.329   C277.758,186.59,267.778,194.421,256.001,194.421z M260.315,373.878c-0.915-0.636-1.979-1.074-3.127-1.255   C258.401,372.809,259.449,373.267,260.315,373.878z M217.462,48.769l-0.056-0.628c-0.753-8.572,2.033-16.789,7.845-23.134   c5.813-6.345,13.753-9.84,22.358-9.84h16.153c8.606,0,16.546,3.495,22.358,9.84c5.812,6.345,8.599,14.561,7.845,23.133   l-0.483,5.498c-31.501-1.912-41.51-16.564-42.277-17.763c-1.377-2.526-3.973-4.051-6.846-3.94   c-2.88,0.111-5.346,1.846-6.526,4.472C237.362,37.293,232.149,46.482,217.462,48.769z M222.603,107.273l-2.015-22.934v-0.001   l-1.797-20.445c12.856-1.745,21.231-7.388,26.279-12.388c7.587,6.775,22.098,15.62,47.082,17.246l-1.292,14.705   c-0.119,0.535-0.188,1.088-0.188,1.659c0,0.102,0.011,0.201,0.015,0.302l-1.921,21.855c-1.354,11.272-10.913,19.759-22.276,19.759   h-21.611C233.517,127.031,223.958,118.544,222.603,107.273z M215.403,175.864c3.109,16.677,16.264,29.856,32.929,32.999   c-0.17,14.156-0.552,47.808-0.771,81.291c-0.168,25.718-0.208,46.311-0.119,61.207c0.067,11.28,0.155,18.498,0.362,23.261   l-47.986-15.319l-9.927-147.513c0.075-0.527,0.113-1.062,0.075-1.606l-2.457-34.319H215.403z M162.462,494.884l-20.82-65.22   l6.575-2.099l2.452,7.679l13.905,43.56c0.001,0.002,0.002,0.005,0.003,0.007l4.461,13.975L162.462,494.884z M176.717,466.967   l-5.208-16.314l-7.125-22.321l66.681,21.287L176.717,466.967z M335.282,466.967l-176.458-56.33   c-0.773-0.406-1.617-0.674-2.492-0.796l-44.943-14.347c-3.164-1.01-5.745-3.192-7.268-6.143c-1.523-2.951-1.806-6.319-0.796-9.483   l7.273-22.782c1.335-4.183,5.219-6.858,9.393-6.858c0.99,0,1.997,0.151,2.99,0.467l226.352,72.258l-13.04,40.85L335.282,466.967z    M349.538,494.884l-6.576-2.099l8.809-27.592l12.012-37.628l6.575,2.099L349.538,494.884z M388.636,350.816   c2.612-0.833,5.387-0.601,7.821,0.656c2.434,1.256,4.234,3.385,5.067,5.994l7.011,21.961c1.048,3.281,0.754,6.774-0.825,9.835   s-4.256,5.323-7.538,6.371l-43.271,13.813l-75.965-24.251l40.15-12.817c0.614-0.114,1.2-0.306,1.755-0.56L388.636,350.816z    M463.38,211.881l-0.003,0.003l-24.183,30.478c-7.426,9.358-20.559,11.477-30.551,4.93c-0.126-0.083-0.255-0.162-0.385-0.237   l-70.543-40.422l1.725-26.216l76.655,40.272c3.228,1.695,7.203,0.854,9.467-2l29.179-36.772l21.012,14.371L463.38,211.881z    M485.243,184.405l-21.662-14.815l15.547-20.625l8.24,32.769L485.243,184.405z">
			</path>
		</g>
	</g>
	<g>
	</g>
	<g>
	</g>
	<g>
	</g>
	<g>
	</g>
	<g>
	</g>
	<g>
	</g>
	<g>
	</g>
	<g>
	</g>
	<g>
	</g>
	<g>
	</g>
	<g>
	</g>
	<g>
	</g>
	<g>
	</g>
	<g>
	</g>
	<g>
	</g>
</svg>
