<svg xmlns="http://www.w3.org/2000/svg" fill="#be8553" xmlns:xlink="http://www.w3.org/1999/xlink" id="Layer_1" x="0px" y="0px" viewBox="0 0 512 512" style="enable-background:new 0 0 512 512;" xml:space="preserve">
	<g>
		<g>
			<path d="M501.801,375.87h-40.497v-33.84v-47.112c0-5.633-4.567-10.199-10.199-10.199H425.97V132.032h23.336   c4.775,0,8.91-3.313,9.953-7.972c1.043-4.659-1.287-9.418-5.605-11.454L262.396,22.481c-2.753-1.297-5.942-1.297-8.695,0   L62.444,112.607c-4.318,2.036-6.649,6.795-5.605,11.454c1.043,4.659,5.178,7.972,9.953,7.972h23.336v152.686h-0.001H64.992   c-5.632,0-10.199,4.566-10.199,10.199v47.112v33.84H10.199C4.567,375.87,0,380.436,0,386.069c0,5.633,4.567,10.199,10.199,10.199   h44.594v14.381c0,5.633,4.567,10.199,10.199,10.199h64.011c5.632,0,10.199-4.566,10.199-10.199   c0-5.633-4.567-10.199-10.199-10.199h-9.26v-48.221h49.245v23.641h-17.453c-5.632,0-10.199,4.566-10.199,10.199   c0,5.633,4.567,10.199,10.199,10.199h17.453v14.381c0,5.633,4.567,10.199,10.199,10.199h44.552   c5.632,0,10.199-4.566,10.199-10.199v-14.381h18.989c5.632,0,10.199-4.566,10.199-10.199c0-5.633-4.567-10.199-10.199-10.199   h-18.989v-23.641h48.733v48.221h-8.236c-5.632,0-10.199,4.566-10.199,10.199c0,5.633,4.567,10.199,10.199,10.199h62.986   c5.632,0,10.199-4.566,10.199-10.199v-14.381h48.733v14.381c0,5.633,4.567,10.199,10.199,10.199h44.552   c5.632,0,10.199-4.566,10.199-10.199v-14.381h40.496c5.632,0,10.199-4.566,10.199-10.199   C512,380.436,507.433,375.87,501.801,375.87z M258.049,42.981l143.514,67.629h-287.03L258.049,42.981z M110.525,132.032h295.047   v41.052H110.525V132.032z M405.571,193.482v91.236h-98.405v-91.236H405.571z M286.768,193.482v91.236h-57.439v-91.236H286.768z    M110.525,193.482h98.405v91.236h-98.405V193.482z M99.345,400.451h-0.001H75.192v-48.222h24.154V400.451z M213.54,400.451   h-24.154v-48.222h24.154V400.451z M327.222,400.451h-24.153v-48.222h24.153V400.451z M396.353,375.87H347.62v-23.641h48.733   V375.87z M440.905,400.451h-24.154v-48.222h24.154V400.451z M440.905,331.831H75.192v-26.714h25.135h315.444h25.135V331.831z">
			</path>
		</g>
	</g>
	<g>
		<g>
			<path d="M483.366,435.272H182.26c-5.632,0-10.199,4.566-10.199,10.199c0,5.633,4.567,10.199,10.199,10.199h301.106   c5.632,0,10.199-4.566,10.199-10.199C493.565,439.838,488.998,435.272,483.366,435.272z">
			</path>
		</g>
	</g>
	<g>
		<g>
			<path d="M177.139,470.094H77.794c-5.632,0-10.199,4.566-10.199,10.199c0,5.633,4.567,10.199,10.199,10.199h99.343   c5.632,0,10.199-4.566,10.199-10.199C187.337,474.66,182.771,470.094,177.139,470.094z">
			</path>
		</g>
	</g>
	<g>
		<g>
			<path d="M223.226,470.094h-8.233c-5.632,0-10.199,4.566-10.199,10.199c0,5.633,4.567,10.199,10.199,10.199h8.233   c5.632,0,10.199-4.566,10.199-10.199C233.425,474.66,228.859,470.094,223.226,470.094z">
			</path>
		</g>
	</g>
	<g>
		<g>
			<path d="M288.774,142.359H134.124c-5.632,0-10.199,4.566-10.199,10.199s4.566,10.199,10.199,10.199h154.651   c5.632,0,10.199-4.566,10.199-10.199S294.406,142.359,288.774,142.359z">
			</path>
		</g>
	</g>
	<g>
		<g>
			<path d="M337.933,142.359h-11.266c-5.632,0-10.199,4.566-10.199,10.199s4.567,10.199,10.199,10.199h11.266   c5.632,0,10.199-4.566,10.199-10.199S343.565,142.359,337.933,142.359z">
			</path>
		</g>
	</g>
	<g>
		<g>
			<path d="M366.61,223.268h-23.556c-5.632,0-10.199,4.566-10.199,10.199c0,5.633,4.567,10.199,10.199,10.199h23.556   c5.632,0,10.199-4.566,10.199-10.199C376.81,227.834,372.243,223.268,366.61,223.268z">
			</path>
		</g>
	</g>
	<g>
		<g>
			<path d="M170.994,223.268h-23.556c-5.632,0-10.199,4.566-10.199,10.199c0,5.633,4.567,10.199,10.199,10.199h23.556   c5.632,0,10.199-4.566,10.199-10.199C181.193,227.834,176.627,223.268,170.994,223.268z">
			</path>
		</g>
	</g>
	<g>
		<g>
			<path d="M245.758,224.293c-5.632,0-10.199,4.566-10.199,10.199v10.242c0,5.633,4.567,10.199,10.199,10.199   c5.632,0,10.199-4.566,10.199-10.199v-10.242C255.957,228.859,251.39,224.293,245.758,224.293z">
			</path>
		</g>
	</g>
	<g>
	</g>
	<g>
	</g>
	<g>
	</g>
	<g>
	</g>
	<g>
	</g>
	<g>
	</g>
	<g>
	</g>
	<g>
	</g>
	<g>
	</g>
	<g>
	</g>
	<g>
	</g>
	<g>
	</g>
	<g>
	</g>
	<g>
	</g>
	<g>
	</g>
</svg>
