<svg xmlns="http://www.w3.org/2000/svg" fill="#BE8553" xmlns:xlink="http://www.w3.org/1999/xlink" id="Layer_1" x="0px" y="0px" viewBox="0 0 512.001 512.001" style="enable-background:new 0 0 512.001 512.001;" xml:space="preserve"><g>	<g>		<path d="M394.499,296.951c-13.992,0-25.376,11.383-25.376,25.376s11.383,25.376,25.376,25.376s25.376-11.383,25.376-25.376   S408.491,296.951,394.499,296.951z M394.499,331.505c-5.061,0-9.178-4.117-9.178-9.178s4.117-9.178,9.178-9.178   s9.178,4.117,9.178,9.178S399.559,331.505,394.499,331.505z"></path>	</g></g><g>	<g>		<path d="M118.064,296.951c-13.992,0-25.376,11.383-25.376,25.376s11.383,25.376,25.376,25.376   c13.992,0,25.376-11.383,25.376-25.376S132.056,296.951,118.064,296.951z M118.064,331.505c-5.061,0-9.178-4.117-9.178-9.178   s4.117-9.178,9.178-9.178s9.178,4.117,9.178,9.178S123.124,331.505,118.064,331.505z"></path>	</g></g><g>	<g>		<path d="M256.281,296.951c-4.474,0-8.099,3.625-8.099,8.099v34.554c0,4.474,3.625,8.099,8.099,8.099   c4.474,0,8.099-3.625,8.099-8.099V305.05C264.38,300.576,260.755,296.951,256.281,296.951z"></path>	</g></g><g>	<g>		<path d="M290.836,296.951c-4.474,0-8.099,3.625-8.099,8.099v34.554c0,4.474,3.625,8.099,8.099,8.099s8.099-3.625,8.099-8.099   V305.05C298.934,300.576,295.309,296.951,290.836,296.951z"></path>	</g></g><g>	<g>		<path d="M325.39,296.951c-4.474,0-8.099,3.625-8.099,8.099v34.554c0,4.474,3.625,8.099,8.099,8.099s8.099-3.625,8.099-8.099   V305.05C333.489,300.576,329.864,296.951,325.39,296.951z"></path>	</g></g><g>	<g>		<path d="M221.727,296.951c-4.474,0-8.099,3.625-8.099,8.099v34.554c0,4.474,3.625,8.099,8.099,8.099s8.099-3.625,8.099-8.099   V305.05C229.826,300.576,226.201,296.951,221.727,296.951z"></path>	</g></g><g>	<g>		<path d="M187.173,296.951c-4.474,0-8.099,3.625-8.099,8.099v34.554c0,4.474,3.625,8.099,8.099,8.099s8.099-3.625,8.099-8.099   V305.05C195.271,300.576,191.646,296.951,187.173,296.951z"></path>	</g></g><g>	<g>		<path d="M453.439,500.198l-45.297-82.846h20.912c13.992,0,24.836-11.923,24.836-25.916V218.664c0-4.474-3.625-8.099-8.099-8.099   s-8.099,3.625-8.099,8.099v172.772c0,5.061-3.577,9.718-8.639,9.718H83.51c-5.061,0-9.718-4.657-9.718-9.718V127.567   c0-4.127,3.05-7.769,7.034-8.856L253.73,71.592c1.582-0.432,3.322-0.431,4.899-0.001l172.535,47.12   c3.982,1.086,6.528,4.729,6.528,8.856v56.543c0,4.474,3.625,8.099,8.099,8.099s8.099-3.625,8.099-8.099v-56.543   c0-11.412-7.419-21.48-18.428-24.482L305.18,67.517c15.981-2.778,28.242-16.738,28.242-33.503C333.422,15.259,318.196,0,299.441,0   s-33.998,15.259-33.998,34.014c0,10.37,4.678,19.664,12.02,25.908l-14.51-3.959c-4.366-1.19-8.98-1.191-13.35,0.001l-14.512,3.959   c7.341-6.244,12.012-15.539,12.012-25.909C247.103,15.259,231.844,0,213.088,0s-34.014,15.259-34.014,34.014   c0,16.763,12.193,30.724,28.175,33.503L76.562,103.085c-11.009,3.002-18.968,13.07-18.968,24.482v263.869   c0,13.992,11.923,25.916,25.916,25.916h20.912l-45.299,82.777c-1.977,3.625-0.837,8.155,2.587,10.461   c3.906,2.63,9.38,1.489,11.632-2.636l7.121-12.854h351.635l7.121,12.787c2.255,4.132,7.721,5.325,11.632,2.704   C454.28,508.293,455.412,503.817,453.439,500.198z M299.474,16.197c9.824,0,17.817,7.993,17.817,17.817   s-7.993,17.817-17.817,17.817c-9.824,0-17.817-7.993-17.817-17.817S289.65,16.197,299.474,16.197z M195.271,34.014   c0-9.824,7.993-17.817,17.817-17.817c9.824,0,17.817,7.993,17.817,17.817s-7.993,17.817-17.817,17.817   C203.264,51.831,195.271,43.839,195.271,34.014z M122.871,417.351h266.82l10.013,18.357H112.858L122.871,417.351z M89.299,478.901   l14.724-26.996h304.515l14.724,26.996H89.299z"></path>	</g></g><g>	<g>		<path d="M413.501,132.95L275.419,95.254c-5.07-1.386-10.5,2.563-10.5,7.813v158.79c0,4.474,4.165,8.639,8.639,8.639h138.217   c4.474,0,7.559-4.165,7.559-8.639V140.762C419.333,137.11,417.024,133.91,413.501,132.95z M403.137,254.298h-122.02V113.671   l122.02,33.278V254.298z"></path>	</g></g><g>	<g>		<path d="M236.873,95.254L98.655,132.95c-3.523,0.961-5.967,4.162-5.967,7.813v121.095c0,4.474,3.625,8.099,8.099,8.099h138.217   c4.473,0,8.099-3.625,8.099-8.099v-158.79C247.103,97.819,241.943,93.865,236.873,95.254z M230.905,253.758h-122.02v-106.81   l122.02-33.278V253.758z"></path>	</g></g><g>	<g>		<path d="M359.944,366.06H152.618c-4.474,0-8.099,3.625-8.099,8.099s3.625,8.099,8.099,8.099h207.326   c4.474,0,8.099-3.625,8.099-8.099S364.418,366.06,359.944,366.06z"></path>	</g></g><g>	<g>		<path d="M401.237,369.666c-1.834-2.683-5.117-4.087-8.325-3.445c-3.323,0.665-5.915,3.396-6.421,6.747   c-0.505,3.344,1.214,6.739,4.192,8.331c3.059,1.635,6.926,1.091,9.426-1.307C402.888,377.325,403.396,372.875,401.237,369.666z"></path>	</g></g><g>	<g>		<path d="M124.79,369.666c-3.995-6.079-13.66-3.815-14.734,3.302c-0.497,3.289,1.148,6.59,4.02,8.233   c3.022,1.729,6.931,1.255,9.484-1.098C126.406,377.48,127.037,372.876,124.79,369.666z"></path>	</g></g><g>	<g>		<path d="M382.948,195.661c-3.164-3.162-8.291-3.162-11.454,0l-17.277,17.277c-3.163,3.163-3.163,8.29,0,11.454   c3.121,3.12,8.333,3.12,11.454,0l17.277-17.277C386.111,203.95,386.111,198.823,382.948,195.661z"></path>	</g></g><g>	<g>		<path d="M365.672,161.106c-3.164-3.162-8.291-3.162-11.454,0l-51.831,51.831c-4.989,4.989-1.357,13.825,5.726,13.825   c2.072,0,4.145-0.79,5.727-2.371l51.831-51.831C368.834,169.396,368.834,164.269,365.672,161.106z"></path>	</g></g><g>	<g>		<path d="M210.176,195.661c-3.164-3.162-8.291-3.162-11.454,0l-17.277,17.277c-3.163,3.163-3.163,8.29,0,11.454   c3.121,3.12,8.333,3.12,11.454,0l17.277-17.277C213.339,203.95,213.339,198.823,210.176,195.661z"></path>	</g></g><g>	<g>		<path d="M192.9,161.106c-3.164-3.162-8.291-3.162-11.454,0l-51.831,51.831c-4.989,4.989-1.357,13.825,5.726,13.825   c2.072,0,4.145-0.79,5.727-2.371L192.9,172.56C196.063,169.396,196.063,164.269,192.9,161.106z"></path>	</g></g><g></g><g></g><g></g><g></g><g></g><g></g><g></g><g></g><g></g><g></g><g></g><g></g><g></g><g></g><g></g></svg>