<svg xmlns="http://www.w3.org/2000/svg" fill="#be8553" xmlns:xlink="http://www.w3.org/1999/xlink" id="Layer_1" x="0px" y="0px" viewBox="0 0 512 512" style="enable-background:new 0 0 512 512;" xml:space="preserve">
	<g>
		<g>
			<path d="M0,71.507v72.216v69.293v85.966v69.292v72.216h122.678v-15.208H15.208v-57.008H30.48   c61.909,0,112.277-50.368,112.277-112.276c0-61.908-50.368-112.275-112.277-112.275H15.208V86.715h233.188v91.799   c-39.376,3.835-70.257,37.118-70.257,77.485c0,40.366,30.88,73.65,70.257,77.485v91.8H142.958v15.208H512v-72.216v-69.292v-85.966   v-69.293V71.507H0z M15.208,228.225h45.639v55.55H15.208V228.225z M30.48,158.93L30.48,158.93   c53.524,0.001,97.069,43.545,97.069,97.068c0,53.524-43.545,97.068-97.069,97.068H15.208v-54.084h60.847v-85.966H15.208V158.93   H30.48z M248.396,318.174c-30.971-3.766-55.049-30.202-55.049-62.175c0-31.972,24.077-58.409,55.049-62.175V318.174z    M263.604,193.823c30.971,3.767,55.049,30.203,55.049,62.175c0,31.972-24.077,58.41-55.049,62.176V193.823z M496.792,283.775   h-45.639v-55.55h45.639V283.775z M496.792,213.018h-60.847v85.965h60.847v54.084H481.52c-53.524,0-97.068-43.544-97.068-97.068   c0-53.523,43.544-97.067,97.068-97.067h15.272V213.018z M496.792,143.723h-15.271c-61.909,0-112.276,50.367-112.276,112.275   s50.367,112.276,112.276,112.276h15.271v57.008H263.604v-91.8c39.376-3.835,70.257-37.118,70.257-77.485   c0-40.366-30.88-73.65-70.257-77.485V86.715h233.188V143.723z">
			</path>
		</g>
	</g>
	<g>
	</g>
	<g>
	</g>
	<g>
	</g>
	<g>
	</g>
	<g>
	</g>
	<g>
	</g>
	<g>
	</g>
	<g>
	</g>
	<g>
	</g>
	<g>
	</g>
	<g>
	</g>
	<g>
	</g>
	<g>
	</g>
	<g>
	</g>
	<g>
	</g>
</svg>
