<?xml version="1.0"?>
<svg xmlns="http://www.w3.org/2000/svg" xmlns:xlink="http://www.w3.org/1999/xlink" xmlns:svgjs="http://svgjs.com/svgjs" version="1.1" width="512px" height="512px" x="0" y="0" viewBox="0 0 512.002 512.002" style="enable-background:new 0 0 512 512" xml:space="preserve" class=""><g><g><path d="m502.303 233.117-92.754 28.42c-3.96 1.214-6.188 5.407-4.974 9.368.989 3.229 3.959 5.305 7.168 5.305.728 0 1.468-.106 2.2-.331l92.754-28.42c3.96-1.214 6.188-5.407 4.974-9.368-1.213-3.961-5.404-6.19-9.368-4.974z" fill="#be8553" data-original="#000000"/><path d="m503.676 372.701-204.202 22.567c-2.846.315-5.264 2.223-6.233 4.917-.112.312-11.463 31.527-29.223 51.233-12.438 13.802-37.282 30.73-50.984 39.593-6.057 3.918-13.087 5.989-20.33 5.989h-11.738l8.857-11.445c2.535-3.275 1.934-7.986-1.342-10.521-3.276-2.534-7.987-1.935-10.521 1.342l-15.96 20.625h-22.033l25.289-32.682c2.535-3.275 1.934-7.986-1.342-10.521-3.277-2.535-7.987-1.935-10.521 1.342l-32.393 41.861h-26.035l43.326-55.99c2.535-3.276 1.934-7.986-1.342-10.521-3.277-2.534-7.987-1.935-10.521 1.342l-50.429 65.17h-10.747c-2.927 0-5.444-1.568-6.733-4.196-1.29-2.628-.99-5.579.802-7.894l88.655-114.571c8.607-11.122 20.264-19.179 33.71-23.299.002-.001.004-.002.006-.002l202.341-61.996c3.96-1.213 6.188-5.407 4.974-9.368-1.214-3.96-5.405-6.188-9.368-4.974l-101.693 31.158c10.559-8.657 20.061-18.555 28.282-29.471 97.824-55.657 123.811-66.6 198.273-66.6 4.143 0 7.5-3.357 7.5-7.5s-3.357-7.5-7.5-7.5c-41.606 0-67.416 3.58-95.229 13.211-23.627 8.181-49.259 21.068-86.677 41.937 11.389-22.823 17.809-48.541 17.809-75.734 0-93.85-76.353-170.201-170.202-170.201-27.317 0-54.476 6.628-78.542 19.168-3.673 1.914-5.1 6.443-3.186 10.117 1.914 3.673 6.443 5.097 10.117 3.186 6.233-3.248 12.7-6.045 19.329-8.407-5.682 4.607-11.277 9.81-16.713 15.586-19.014 20.202-34.272 45.472-43.691 72.122-7.529-7.273-14.131-15.034-19.452-23.096 9.391-15.182 21.47-28.83 35.942-40.276 3.249-2.569 3.8-7.286 1.23-10.535-2.57-3.25-7.287-3.8-10.535-1.23-41.118 32.517-64.701 81.201-64.701 133.565 0 88.562 67.995 161.531 154.521 169.473l-38.581 11.821c-8.656 2.653-16.019 8.437-20.729 16.284-5.1 8.495-18.355 25.075-32.096 37.329-.175.071-.35.142-.521.227-7.573 3.757-15.437 3.563-20.034-.496-2.646-2.337-2.758-5.288-2.589-6.84.308-2.837 1.977-5.355 4.465-6.738 19.932-11.073 40.924-36.464 49.238-48.342 2.375-3.394 1.55-8.069-1.843-10.445-3.393-2.374-8.068-1.549-10.445 1.844-10.693 15.275-29.831 35.828-44.235 43.832-6.739 3.743-11.259 10.559-12.093 18.23-.819 7.547 1.94 14.728 7.572 19.701 2.645 2.336 5.724 4.08 9.074 5.235-3.306 3.671-5.448 8.329-5.995 13.362-.819 7.547 1.941 14.729 7.573 19.702 4.273 3.773 9.675 5.994 15.537 6.667l-11.362 14.683c-5.293 6.841-6.215 15.915-2.405 23.68 3.81 7.766 11.55 12.59 20.2 12.59h127.451c10.14 0 19.987-2.902 28.477-8.394 17.498-11.318 41.066-27.817 53.98-42.146 15.697-17.419 26.493-41.852 30.492-51.784l199.672-22.066c4.116-.455 7.085-4.162 6.631-8.279-.456-4.117-4.163-7.077-8.279-6.631zm-433.713-84.112c6.784 2.591 14.027 4.817 21.685 6.622 14.886 3.51 30.531 5.261 46.234 5.261 12.783 0 25.601-1.17 38.073-3.489-2.529 10.14-5.941 19.724-10.252 28.352-36.427-1.043-69.745-14.701-95.74-36.746zm179.502 14.997c10.668-24.822 14.123-57.043 9.22-90.933-.594-4.099-4.393-6.94-8.497-6.349-4.099.594-6.941 4.397-6.349 8.497 5.85 40.431-.951 77.737-18.188 100.354-13.611 5.224-28.135 8.591-43.264 9.772 8.996-21.013 13.888-46.554 13.888-73.381 0-30.158-6.166-58.709-17.418-81.005 8.719-13.269 20.894-25.739 35.004-36.535 10.333 15.878 18.371 33.604 23.926 52.803.95 3.282 3.947 5.417 7.201 5.417.69 0 1.392-.096 2.088-.298 3.979-1.151 6.271-5.31 5.12-9.289-6.024-20.816-14.788-40.048-26.078-57.288 11.243-7.302 23.326-13.518 35.611-18.316 18.967 20.751 33.686 46.487 41.656 72.993 7.906 26.292 8.26 51.058 1.008 68.073-13.3 22.823-32.253 41.96-54.928 55.485zm73.438-105.57c-1.148-7.236-2.865-14.698-5.153-22.307-7.989-26.568-22.244-52.417-40.615-73.899 10.029-2.874 20.018-4.711 29.631-5.295 11.883 21.935 18.638 47.036 18.638 73.686-.001 9.494-.862 18.788-2.501 27.815zm-24.88-115.736c-22.669 2.727-47.2 11.257-70.401 24.653-26.118 15.079-47.762 34.696-61.445 55.588-15.85-.917-32.735-5.226-49.139-12.047 15.201-29.881 39.103-56.59 67.966-75.777 28.607-19.018 58.648-28.074 82.834-25.04 11.547 9.369 21.724 20.36 30.185 32.623zm-185.893-32.349c18.834-20.012 40.13-32.715 58.503-34.924 27.385.075 53.119 7.283 75.452 19.854-22.167 2.626-46.353 12.034-69.385 27.344-31.149 20.707-56.941 49.614-73.292 81.979-11.944-6.085-23.367-13.441-33.664-21.681 8.487-26.803 23.417-52.417 42.386-72.572zm-25.422 102.16c26.118 15.079 53.928 24.015 78.863 25.418 7.131 14.184 11.842 30.96 14.137 48.575-40.844 2.126-84.661-9.547-118.643-31.85-3.462-2.271-8.113-1.308-10.385 2.155-2.273 3.463-1.308 8.112 2.155 10.386 33.74 22.144 76.48 34.556 117.418 34.556 3.624 0 7.233-.11 10.823-.306.703 13.391.045 26.966-1.944 40.008-27.455 6.05-57.102 5.928-84.042-.422-26.721-6.299-48.354-18.372-59.462-33.158-12.811-22.23-20.26-47.917-20.602-75.286 3.539 4.745 7.575 9.392 12.109 13.916 1.464 1.461 3.38 2.191 5.297 2.191 1.922 0 3.844-.734 5.309-2.202 2.926-2.933 2.92-7.682-.012-10.606-9.545-9.525-16.533-19.52-20.803-29.736 2.335-14.807 6.771-29.067 13.138-42.408 13.701 18.317 33.39 35.344 56.644 48.769zm-33.498 291.047c-2.645-2.336-2.758-5.288-2.589-6.839.308-2.838 1.978-5.356 4.465-6.738 21.503-11.946 45.493-41.579 52.985-54.06 2.801-4.666 7.157-8.098 12.264-9.663l15.944-4.885c-.055.07-.112.137-.167.207l-64.345 83.155c-7.102 3.034-14.257 2.62-18.557-1.177z" fill="#be8553" data-original="#000000"/></g></g></svg>
