<?xml version="1.0"?>
<svg xmlns="http://www.w3.org/2000/svg" xmlns:xlink="http://www.w3.org/1999/xlink" xmlns:svgjs="http://svgjs.com/svgjs" version="1.1" width="512px" height="512px" x="0" y="0" viewBox="0 0 512.001 512" style="enable-background:new 0 0 512 512" xml:space="preserve" class=""><g><path d="m239.433594 230.367188h33.132812c4.144532 0 7.5-3.355469 7.5-7.5v-66.265626c0-4.144531-3.355468-7.5-7.5-7.5h-33.132812c-4.140625 0-7.5 3.355469-7.5 7.5v66.265626c0 4.144531 3.359375 7.5 7.5 7.5zm7.5-66.265626h18.132812v51.265626h-18.132812zm0 0" fill="#be8553" data-original="#000000"/><path d="m239.433594 346.332031h33.132812c4.144532 0 7.5-3.355469 7.5-7.5v-82.832031c0-4.144531-3.355468-7.5-7.5-7.5h-33.132812c-4.140625 0-7.5 3.355469-7.5 7.5v82.832031c0 4.144531 3.359375 7.5 7.5 7.5zm7.5-82.832031h18.132812v67.832031h-18.132812zm0 0" fill="#be8553" data-original="#000000"/><path d="m239.433594 478.863281h33.132812c4.144532 0 7.5-3.355469 7.5-7.5v-99.398437c0-4.140625-3.355468-7.5-7.5-7.5h-33.132812c-4.140625 0-7.5 3.359375-7.5 7.5v99.398437c0 4.144531 3.359375 7.5 7.5 7.5zm7.5-99.398437h18.132812v84.398437h-18.132812zm0 0" fill="#be8553" data-original="#000000"/><path d="m504.5 33.132812h-139.875l-1.742188-26.132812c-.261718-3.9375-3.535156-7-7.480468-7h-198.800782c-3.949218 0-7.222656 3.0625-7.484374 7l-1.742188 26.132812h-139.875c-4.140625 0-7.5 3.355469-7.5 7.5v82.832032c0 4.144531 3.359375 7.5 7.5 7.5 20.710938 0 37.96875 15 41.519531 34.703125h-8.386719c-4.140624 0-7.5 3.355469-7.5 7.5v33.132812c0 4.144531 3.359376 7.5 7.5 7.5h9.066407v34.699219h-.78125c-4.144531 0-7.5 3.355469-7.5 7.5 0 4.140625 3.355469 7.5 7.5 7.5h66.265625c4.140625 0 7.5-3.359375 7.5-7.5 0-4.144531-3.359375-7.5-7.5-7.5h-.785156v-34.699219h9.070312c4.140625 0 7.5-3.355469 7.5-7.5v-33.132812c0-4.144531-3.359375-7.5-7.5-7.5h-8.386719c2.582031-14.332031 12.414063-26.167969 25.558594-31.558594l-24.65625 369.886719c-.140625 2.074218.585937 4.109375 2.003906 5.625s3.402344 2.375 5.476563 2.375h265.066406.015625c.160156 0 .320313-.003906.484375-.015625.042969-.003907.085938-.011719.128906-.015625.136719-.011719.269532-.03125.40625-.046875.113282-.015625.230469-.03125.34375-.054688.132813-.023437.261719-.054687.394532-.085937.113281-.027344.226562-.054688.335937-.085938.125-.035156.242187-.078125.363281-.121094.113282-.039062.230469-.078124.339844-.125.113281-.042968.222656-.09375.332031-.144531.109375-.054687.222657-.105469.332031-.164062.105469-.050781.207032-.113281.304688-.171875.109375-.0625.21875-.125.324219-.195313.097656-.0625.1875-.128906.28125-.199219.101562-.070312.203125-.144531.300781-.222656.089844-.074218.179688-.152344.269531-.230468.089844-.078126.179688-.160157.265625-.242188.089844-.085938.171875-.175781.253906-.265625.082032-.085937.160157-.167969.234376-.257813.082031-.097656.160156-.195312.238281-.296874.066406-.089844.136719-.175782.203125-.269532.074218-.105468.140625-.214844.210937-.328125.058594-.09375.117188-.183593.171875-.28125.0625-.113281.121094-.230469.179688-.34375.050781-.101562.101562-.203125.148437-.308593.050781-.113282.09375-.230469.140625-.347657.042969-.113281.085938-.222656.121094-.335937.039062-.117188.070312-.230469.101562-.347656.035157-.121094.066407-.246094.09375-.371094.027344-.113282.046876-.226563.066407-.339844.023437-.132812.042969-.265625.058593-.398438.015626-.117187.023438-.230468.03125-.347656.011719-.136718.019532-.273437.019532-.410156.003906-.042969.007812-.085938.007812-.128906 0-.082032-.007812-.164063-.011718-.25-.003907-.082032 0-.164063-.003907-.25l-24.660156-369.886719c13.144531 5.390625 22.980469 17.226563 25.5625 31.558594h-8.390625c-4.140625 0-7.5 3.355469-7.5 7.5v33.132812c0 4.144531 3.359375 7.5 7.5 7.5h9.070312v34.699219h-.785156c-4.140625 0-7.5 3.355469-7.5 7.5 0 4.140625 3.359375 7.5 7.5 7.5h66.265625c4.144531 0 7.5-3.359375 7.5-7.5 0-4.144531-3.355469-7.5-7.5-7.5h-.78125v-34.699219h9.066407c4.140624 0 7.5-3.355469 7.5-7.5v-33.132812c0-4.144531-3.359376-7.5-7.5-7.5h-8.386719c3.550781-19.703125 20.8125-34.703125 41.519531-34.703125 4.144531 0 7.5-3.355469 7.5-7.5v-82.832032c0-4.140624-3.359375-7.5-7.5-7.5zm-154.90625 0h-18.101562l-1.210938-18.132812h18.101562zm-34.34375-18.132812 1.210938 18.132812h-120.917969l1.207031-18.132812zm-151.632812 0h18.101562l-1.210938 18.132812h-18.101562zm-64.21875 233.5h-34.699219v-34.699219h34.699219zm16.570312-49.699219h-9.03125c-.011719 0-.023438-.003906-.039062-.003906-.011719 0-.023438.003906-.039063.003906h-49.621094c-.011719 0-.027343-.003906-.039062-.003906s-.027344.003906-.039063.003906h-9.027344v-18.132812h67.835938zm39.917969-67.816406c.238281-.003906.472656-.019531.714843-.019531h17.382813l-24.398437 366.03125h-18.101563zm167.09375-.019531 24.402343 366.03125h-182.765624l24.402343-366.03125zm57.535156 366.03125h-18.097656l-24.402344-366.027344h17.386719c.238281 0 .476562.011719.714844.015625zm66.785156-248.496094h-34.703125v-34.699219h34.703125zm16.566407-49.699219h-9.027344c-.015625 0-.027344-.003906-.039063-.003906-.015625 0-.027343.003906-.039062.003906h-49.625c-.011719 0-.027344-.003906-.039063-.003906-.011718 0-.027344.003906-.039062.003906h-9.027344v-18.132812h67.835938zm33.132812-82.34375c-25.554688 3.359375-45.851562 23.65625-49.210938 49.210938h-35.679687c-3.269531-24.867188-22.578125-44.742188-47.164063-48.890625-.316406-.074219-.644531-.125-.972656-.160156-2.796875-.421876-5.660156-.648438-8.574218-.648438h-198.796876c-29 0-53.027343 21.6875-56.710937 49.699219h-35.679687c-3.359376-25.554688-23.65625-45.851563-49.210938-49.210938v-35.191406h87.75c4.140625 0 7.5-3.355469 7.5-7.5 0-4.140625-3.359375-7.5-7.5-7.5h-87.75v-18.132813h482v18.132813h-364.25c-4.140625 0-7.5 3.359375-7.5 7.5 0 4.144531 3.359375 7.5 7.5 7.5h364.25zm0 0" fill="#be8553" data-original="#000000"/><path d="m82.050781 99.402344c-4.144531 0-7.5 3.355468-7.5 7.5v16.5625c0 4.144531 3.355469 7.5 7.5 7.5 4.140625 0 7.5-3.355469 7.5-7.5v-16.5625c0-4.144532-3.359375-7.5-7.5-7.5zm0 0" fill="#be8553" data-original="#000000"/><path d="m429.949219 130.964844c4.140625 0 7.5-3.355469 7.5-7.5v-16.5625c0-4.144532-3.359375-7.5-7.5-7.5s-7.5 3.355468-7.5 7.5v16.5625c0 4.144531 3.359375 7.5 7.5 7.5zm0 0" fill="#be8553" data-original="#000000"/></g></svg>
