<svg xmlns="http://www.w3.org/2000/svg" fill="#be8553" xmlns:xlink="http://www.w3.org/1999/xlink" id="Layer_1" x="0px" y="0px" viewBox="0 0 512 512" style="enable-background:new 0 0 512 512;" xml:space="preserve">
	<g>
		<g>
			<g>
				<path d="M67.249,230.391c-4.669,10.007-5.409,21.383-1.939,32.062c3.469,10.68,10.755,19.449,20.414,24.8     c-1.348,10.959,1.464,22.007,8.064,31.093c6.601,9.084,16.239,15.172,27.078,17.276c2.105,10.839,8.193,20.478,17.278,27.078     c7.546,5.483,16.455,8.383,25.763,8.383c1.781,0,3.561-0.107,5.326-0.322c5.351,9.661,14.121,16.95,24.803,20.42     c4.404,1.431,8.967,2.156,13.561,2.156c2.754,0,5.48-0.274,8.154-0.78v73.818h-15.208v-49.172h-15.208v49.172H170.13v-29.209     c0-25.823-21.008-46.83-46.83-46.83v15.208c17.436,0,31.622,14.186,31.622,31.622v29.209H88.584v15.208h127.171h80.479h30.731     v-15.208h-30.731v-73.819c2.676,0.507,5.401,0.78,8.156,0.78c4.595,0,9.157-0.726,13.561-2.156     c10.683-3.47,19.454-10.758,24.804-20.42c1.765,0.215,3.543,0.322,5.326,0.322c9.308,0,18.217-2.899,25.762-8.383     c9.085-6.6,15.173-16.239,17.277-27.078c10.84-2.104,20.478-8.192,27.08-17.277c6.6-9.085,9.412-20.132,8.063-31.092     c9.659-5.351,16.944-14.12,20.414-24.8c3.47-10.68,2.729-22.057-1.938-32.062c7.533-8.074,11.752-18.664,11.752-29.895     c0-11.23-4.219-21.82-11.752-29.894c4.668-10.006,5.409-21.382,1.938-32.062c-3.47-10.68-10.754-19.449-20.414-24.8     c1.348-10.96-1.463-22.007-8.064-31.092S401.961,67.474,391.12,65.37c-2.104-10.839-8.192-20.478-17.276-27.078     c-7.546-5.483-16.455-8.383-25.763-8.383c-1.782,0-3.561,0.107-5.326,0.322c-5.351-9.661-14.121-16.95-24.804-20.42     c-4.404-1.431-8.967-2.156-13.561-2.156c-6.426,0-12.717,1.403-18.499,4.097C277.816,4.219,267.225,0,255.995,0     s-21.822,4.22-29.896,11.754c-5.782-2.694-12.074-4.097-18.499-4.097c-4.595,0-9.157,0.726-13.561,2.156     c-10.682,3.47-19.453,10.758-24.803,20.42c-1.766-0.215-3.544-0.322-5.326-0.322c-9.308,0-18.217,2.899-25.763,8.383     c-9.085,6.6-15.173,16.239-17.278,27.078c-10.839,2.104-20.478,8.192-27.078,17.277s-9.412,20.133-8.064,31.092     c-9.658,5.351-16.944,14.12-20.414,24.8c-3.47,10.68-2.731,22.056,1.938,32.063c-7.532,8.073-11.752,18.663-11.752,29.893     C55.499,211.727,59.717,222.316,67.249,230.391z M281.026,442.044h-25.031v15.208h25.031v9.125h-50.063V393.17     c0.502,0.349,1.012,0.685,1.527,1.013c0.15,0.095,0.302,0.186,0.453,0.279c0.384,0.237,0.771,0.47,1.161,0.695     c0.191,0.109,0.382,0.217,0.574,0.323c0.368,0.205,0.738,0.404,1.111,0.597c0.192,0.099,0.383,0.2,0.576,0.296     c0.428,0.214,0.861,0.42,1.295,0.619c0.134,0.061,0.265,0.127,0.398,0.187c0.568,0.254,1.142,0.496,1.72,0.726     c0.144,0.057,0.291,0.109,0.436,0.165c0.44,0.169,0.882,0.334,1.328,0.488c0.206,0.072,0.413,0.139,0.62,0.208     c0.397,0.132,0.797,0.258,1.198,0.378c0.214,0.064,0.428,0.128,0.644,0.189c0.432,0.122,0.867,0.235,1.303,0.345     c0.176,0.044,0.351,0.091,0.528,0.134c0.609,0.144,1.223,0.277,1.84,0.395c0.103,0.02,0.209,0.034,0.312,0.054     c0.517,0.095,1.037,0.181,1.559,0.259c0.209,0.03,0.42,0.057,0.63,0.084c0.427,0.057,0.855,0.107,1.285,0.151     c0.226,0.023,0.452,0.046,0.679,0.065c0.441,0.039,0.883,0.069,1.327,0.093c0.201,0.011,0.399,0.025,0.6,0.034     c0.64,0.027,1.283,0.046,1.926,0.046s1.286-0.017,1.924-0.045c0.203-0.009,0.406-0.023,0.608-0.034     c0.441-0.025,0.88-0.055,1.318-0.093c0.23-0.02,0.458-0.043,0.687-0.066c0.425-0.044,0.848-0.094,1.269-0.15     c0.215-0.028,0.431-0.055,0.645-0.086c0.511-0.075,1.019-0.16,1.525-0.253c0.116-0.021,0.231-0.038,0.347-0.06     c0.613-0.118,1.222-0.249,1.827-0.392c0.189-0.045,0.375-0.095,0.564-0.142c0.423-0.105,0.844-0.216,1.262-0.334     c0.226-0.064,0.45-0.131,0.675-0.198c0.387-0.117,0.773-0.238,1.157-0.364c0.22-0.073,0.44-0.145,0.658-0.221     c0.424-0.147,0.844-0.303,1.262-0.464c0.166-0.064,0.334-0.123,0.499-0.189c0.57-0.226,1.135-0.464,1.694-0.715     c0.157-0.07,0.311-0.147,0.467-0.219c0.411-0.19,0.819-0.383,1.224-0.585c0.207-0.103,0.413-0.211,0.617-0.318     c0.357-0.186,0.712-0.375,1.064-0.571c0.205-0.114,0.41-0.228,0.613-0.346c0.371-0.214,0.739-0.436,1.104-0.661     c0.168-0.104,0.34-0.205,0.507-0.311c0.51-0.324,1.016-0.658,1.514-1.004v18.455h-25.031v15.208h25.031V442.044z M81.528,178.056     l5.428-4.331l-3.824-5.798c-4.844-7.345-6.068-16.343-3.357-24.689c2.711-8.343,8.99-14.903,17.227-17.998l6.502-2.442     l-1.845-6.696c-2.338-8.482-0.721-17.418,4.436-24.516c5.158-7.097,13.156-11.396,21.946-11.794l6.938-0.314l0.314-6.939     c0.398-8.789,4.697-16.789,11.795-21.945c4.931-3.583,10.749-5.477,16.824-5.477c2.596,0,5.185,0.351,7.691,1.041l6.696,1.845     l2.442-6.502c3.094-8.237,9.654-14.515,17.998-17.227c2.884-0.937,5.866-1.412,8.862-1.412c5.621,0,11.094,1.65,15.824,4.769     l5.798,3.823l4.332-5.428c5.487-6.874,13.667-10.819,22.44-10.819s16.953,3.945,22.441,10.822l4.332,5.428l5.797-3.823     c4.732-3.12,10.202-4.769,15.824-4.769c2.997,0,5.978,0.476,8.862,1.412c8.343,2.711,14.904,8.99,17.999,17.227l2.442,6.502     l6.695-1.845c2.506-0.691,5.094-1.041,7.691-1.041c6.075,0,11.892,1.894,16.824,5.477c7.097,5.156,11.396,13.156,11.794,21.945     l0.314,6.939l6.939,0.314c8.79,0.398,16.79,4.697,21.946,11.794c5.156,7.098,6.774,16.033,4.436,24.517l-1.844,6.696l6.501,2.442     c8.237,3.095,14.514,9.654,17.225,17.998c2.711,8.344,1.487,17.342-3.358,24.688l-3.824,5.799l5.429,4.331     c6.876,5.487,10.821,13.666,10.821,22.44c0,8.774-3.945,16.954-10.821,22.441l-5.429,4.331l3.824,5.799     c4.844,7.344,6.068,16.342,3.358,24.688c-2.711,8.343-8.989,14.903-17.225,17.998l-6.501,2.442l1.844,6.696     c2.337,8.483,0.72,17.419-4.436,24.517c-5.156,7.097-13.156,11.396-21.946,11.794l-6.939,0.314l-0.314,6.939     c-0.398,8.789-4.697,16.788-11.795,21.945c-4.93,3.583-10.748,5.477-16.823,5.477c-2.598,0-5.185-0.351-7.691-1.041l-6.695-1.845     l-2.442,6.502c-3.095,8.237-9.655,14.515-17.999,17.227c-2.884,0.937-5.866,1.412-8.862,1.412c-4.12,0-8.157-0.894-11.883-2.596     l-0.57-0.275c-1.22-0.589-2.354-1.228-3.371-1.899l-3.494-2.304l-2.303-1.52h-0.001l-4.331,5.428     c-5.488,6.877-13.667,10.822-22.441,10.822s-16.953-3.945-22.441-10.821l-4.331-5.428l-0.001-0.001l-5.798,3.823     c-0.161,0.106-0.33,0.198-0.493,0.3c-0.892,0.56-1.846,1.1-2.877,1.597l-0.584,0.282c-3.723,1.697-7.755,2.59-11.87,2.59     c-2.997,0-5.978-0.475-8.862-1.412c-8.343-2.711-14.904-8.99-17.998-17.227l-2.442-6.502l-6.695,1.845     c-2.507,0.691-5.095,1.041-7.691,1.041c-6.075,0-11.893-1.894-16.824-5.477c-7.097-5.158-11.397-13.156-11.794-21.945     l-0.314-6.939l-6.939-0.314c-8.789-0.398-16.787-4.697-21.945-11.794c-5.156-7.098-6.774-16.033-4.436-24.516l1.845-6.696     l-6.502-2.442c-8.237-3.095-14.516-9.654-17.227-17.998c-2.711-8.343-1.487-17.341,3.357-24.689l3.824-5.798l-5.428-4.331     c-6.877-5.488-10.821-13.667-10.821-22.441C70.707,191.726,74.651,183.544,81.528,178.056z">
				</path>
				<rect x="347.242" y="466.376" width="76.161" height="15.208">
				</rect>
				<rect x="43.865" y="496.792" width="424.271" height="15.208">
				</rect>
				<path d="M322.016,322.485c-20.153,10.953-42.983,16.742-66.021,16.742v15.208c25.568,0,50.908-6.428,73.282-18.587     L322.016,322.485z">
				</path>
				<path d="M392.838,270.965c11.183-21.635,17.095-46.002,17.095-70.468h-15.208c0,43.793-21.119,85.534-56.492,111.661     l9.036,12.233C366.266,310.359,382.023,291.886,392.838,270.965z">
				</path>
			</g>
		</g>
	</g>
	<g>
	</g>
	<g>
	</g>
	<g>
	</g>
	<g>
	</g>
	<g>
	</g>
	<g>
	</g>
	<g>
	</g>
	<g>
	</g>
	<g>
	</g>
	<g>
	</g>
	<g>
	</g>
	<g>
	</g>
	<g>
	</g>
	<g>
	</g>
	<g>
	</g>
</svg>
