<?xml version="1.0"?>
<svg xmlns="http://www.w3.org/2000/svg" xmlns:xlink="http://www.w3.org/1999/xlink" xmlns:svgjs="http://svgjs.com/svgjs" version="1.1" width="512px" height="512px" x="0" y="0" viewBox="0 0 511.999 511.999" style="enable-background:new 0 0 512 512" xml:space="preserve" class=""><g>
<g>
	<g>
		<path d="M305.673,201.429c-4.401,0-6.288,0.472-9.512,6.13l-8.096,14.149l-8.096-14.149c-3.223-5.659-5.108-6.13-9.511-6.13    c-3.065,0-6.131,1.65-6.131,6.13v47.555c0.001,2.513,3.066,3.771,6.131,3.771s6.13-1.258,6.13-3.772v-30.262l7.467,13.677    c0.943,1.808,2.438,2.279,3.852,2.279c1.493,0,3.065-0.55,4.087-2.279l7.546-12.891v29.477c0,2.515,3.065,3.772,6.131,3.772    c3.066,0,6.13-1.258,6.13-3.772v-47.555C311.803,203.079,308.817,201.429,305.673,201.429z" fill="#be8553" data-original="#000000" class=""/>
	</g>
</g>
<g>
	<g>
		<path d="M361.872,252.99l-14.698-47.948c-0.865-2.751-4.402-4.087-8.018-4.087s-7.152,1.336-8.017,4.087l-14.62,47.948    c-0.909,3.611,4.259,5.895,7.702,5.895c1.965,0,3.537-0.629,4.009-2.279l2.672-9.826h16.586l2.672,9.826    c0.472,1.65,2.044,2.279,4.009,2.279C357.608,258.885,362.783,256.61,361.872,252.99z M333.417,237.348l5.738-21.065l5.738,21.065    H333.417z" fill="#be8553" data-original="#000000" class=""/>
	</g>
</g>
<g>
	<g>
		<path d="M396.77,248.194h-17.921V205.12c0-2.594-3.065-3.694-6.131-3.694c-3.066,0-6.131,1.1-6.131,3.694v49.992    c0,2.515,2.673,3.773,5.345,3.773h24.839c2.358,0,3.537-2.672,3.537-5.345C400.307,250.868,399.128,248.194,396.77,248.194z" fill="#be8553" data-original="#000000" class=""/>
	</g>
</g>
<g>
	<g>
		<path d="M435.442,248.194H417.52V205.12c0-2.594-3.064-3.694-6.13-3.694c-3.066,0-6.131,1.1-6.131,3.694v49.992    c0,2.515,2.672,3.773,5.345,3.773h24.839c2.357,0,3.537-2.672,3.537-5.345C438.98,250.868,437.799,248.194,435.442,248.194z" fill="#be8553" data-original="#000000" class=""/>
	</g>
</g>
<g>
	<g>
		<path d="M491.919,420.86h-3.757v-73.613c0-4.142-3.357-7.5-7.5-7.5s-7.5,3.358-7.5,7.5v73.613h-50.946V308.692    c0-5.807-4.725-10.533-10.532-10.533c-5.365,0-118.219,0-123.7,0c-5.75,0-10.429,4.678-10.429,10.429v112.271h-50.946V284.853    h246.554v27.392c0,4.142,3.357,7.5,7.5,7.5s7.5-3.358,7.5-7.5c0-4.166,0-123.271,0-125.658c0-7.508-6.107-13.616-13.615-13.616    h-52.331v-19.905c4.016-0.144,7.229-3.436,7.229-7.486s-3.213-7.342-7.229-7.486v-15.726c4.016-0.144,7.229-3.436,7.229-7.486    c0-4.05-3.213-7.342-7.229-7.486V63.405c0-4.89-2.374-9.51-6.35-12.357c-3.977-2.848-9.116-3.608-13.745-2.031L47.435,169.682    c-9.526,3.24-15.927,12.179-15.927,22.24V420.86H20.082C9.009,420.86,0,429.869,0,440.942v2.765    c0,11.073,9.009,20.082,20.082,20.082h218.416c4.143,0,7.5-3.358,7.5-7.5c0-4.142-3.357-7.5-7.5-7.5H20.082    c-2.754,0-5.081-2.327-5.081-5.081v-2.765c0-2.754,2.327-5.081,5.081-5.081h471.837c2.754,0,5.08,2.327,5.08,5.081v2.765    c0,2.754-2.326,5.081-5.08,5.081H273.501c-4.143,0-7.5,3.358-7.5,7.5c0,4.142,3.357,7.5,7.5,7.5h218.417    c11.073,0,20.081-9.009,20.081-20.082v-2.765C512,429.869,502.991,420.86,491.919,420.86z M173.298,420.86H85.026v-22.751h88.272    V420.86z M173.298,383.108H85.026v-22.751h88.272V383.108z M173.298,345.356H85.026v-22.751h88.272V345.356z M173.298,307.604    H84.981l-0.009-22.751h88.326V307.604z M211.606,186.379c0,11.217,0,223.792,0,234.481h-23.306c0-6.7,0-131.815,0-136.062    c0-8.242-6.704-14.946-14.946-14.946H84.972c-8.242,0-14.946,6.704-14.946,14.946c0,4.805,0,131.237,0,136.062H46.509V191.923    c0-3.637,2.313-6.867,5.757-8.039L406.953,63.218c0.058-0.02,0.096-0.033,0.179,0.026c0.083,0.059,0.083,0.1,0.083,0.161v43.975    h-57.33c-4.143,0-7.5,3.358-7.5,7.5c0,4.142,3.357,7.5,7.5,7.5h57.33v15.698h-57.33c-4.143,0-7.5,3.358-7.5,7.5    c0,4.142,3.357,7.5,7.5,7.5h57.33v19.891H225.014C217.62,172.971,211.606,178.985,211.606,186.379z M226.607,187.972h188.107    h58.445v81.881H226.607V187.972z M342.383,420.86h-49.829V313.161h49.829V420.86z M407.213,420.86h-49.829V313.161h49.829V420.86z    " fill="#be8553" data-original="#000000" class=""/>
	</g>
</g>
<g>
</g>
<g>
</g>
<g>
</g>
<g>
</g>
<g>
</g>
<g>
</g>
<g>
</g>
<g>
</g>
<g>
</g>
<g>
</g>
<g>
</g>
<g>
</g>
<g>
</g>
<g>
</g>
<g>
</g>
</g></svg>
