<svg xmlns="http://www.w3.org/2000/svg" fill="#BE8553" xmlns:xlink="http://www.w3.org/1999/xlink" id="Layer_1" x="0px" y="0px" viewBox="0 0 512 512" style="enable-background:new 0 0 512 512;" xml:space="preserve"><g transform="translate(0 -1)">	<g>		<g>			<path d="M332.8,257c0-42.413-34.387-76.8-76.8-76.8s-76.8,34.387-76.8,76.8c0,42.413,34.387,76.8,76.8,76.8    S332.8,299.413,332.8,257z M196.267,257c0-32.987,26.746-59.733,59.733-59.733s59.733,26.746,59.733,59.733    c0,32.987-26.746,59.733-59.733,59.733S196.267,289.987,196.267,257z"></path>			<path d="M403.1,188.733c-16.124-34.687-44.146-62.709-78.833-78.833V1H187.733v108.9c-34.687,16.124-62.709,44.146-78.833,78.833    H0v136.533h108.9c16.124,34.687,44.146,62.709,78.833,78.833V513h136.533V404.1c34.687-16.124,62.709-44.146,78.833-78.833H512    V188.733H403.1z M494.933,308.2H391.893l-2.202,5.212c-14.683,34.75-42.529,62.595-77.279,77.279l-5.212,2.202v103.041H204.8    V392.893l-5.212-2.202c-34.75-14.683-62.595-42.529-77.279-77.279l-2.202-5.212H17.067V205.8h103.041l2.202-5.212    c14.683-34.75,42.529-62.595,77.279-77.279l5.212-2.202V18.067h102.4v103.041l5.212,2.202    c34.75,14.683,62.595,42.529,77.279,77.279l2.202,5.212h103.041V308.2z"></path>			<path d="M166.652,307.07c-2.308-4.109-7.51-5.569-11.619-3.261s-5.569,7.51-3.261,11.619    c6.033,10.741,13.699,20.492,22.701,28.899c3.444,3.217,8.844,3.032,12.061-0.412c3.217-3.444,3.032-8.844-0.412-12.061    C178.399,324.642,171.824,316.278,166.652,307.07z"></path>			<path d="M167.518,189.538c3.517,3.138,8.911,2.831,12.048-0.686c7.034-7.884,15.247-14.648,24.334-20.029    c4.055-2.401,5.396-7.636,2.994-11.691c-2.401-4.055-7.635-5.396-11.691-2.994c-10.598,6.276-20.172,14.161-28.372,23.351    C163.694,181.006,164.001,186.401,167.518,189.538z"></path>			<path d="M153.705,261.688c-0.069-1.53-0.104-3.066-0.105-4.606c0-9.184,1.185-18.132,3.509-26.766    c1.225-4.551-1.472-9.233-6.023-10.458c-4.551-1.225-9.233,1.472-10.458,6.023c-2.712,10.079-4.095,20.517-4.095,31.207    c0.001,1.798,0.042,3.584,0.122,5.366c0.212,4.708,4.2,8.353,8.908,8.141C150.272,270.384,153.917,266.396,153.705,261.688z"></path>			<path d="M258.343,359.374c-0.767,0.017-1.535,0.026-2.304,0.026c-9.937,0-19.644-1.402-28.954-4.136    c-4.522-1.328-9.264,1.261-10.592,5.783c-1.328,4.522,1.261,9.264,5.783,10.592c10.869,3.193,22.195,4.828,33.767,4.828    c0.898,0,1.791-0.01,2.683-0.03c4.712-0.106,8.446-4.011,8.34-8.722C266.96,363.002,263.055,359.268,258.343,359.374z"></path>			<path d="M375.467,256.811c-0.006-3.592-0.17-7.166-0.491-10.714c-0.425-4.694-4.574-8.154-9.268-7.729s-8.154,4.574-7.729,9.268    c0.276,3.045,0.417,6.114,0.422,9.201c0,0.027,0.004,0.054,0.004,0.081c0,0.027-0.004,0.054-0.004,0.081    c0,10.699-1.638,21.167-4.819,31.144c-1.432,4.49,1.048,9.291,5.538,10.722c4.49,1.432,9.291-1.048,10.722-5.538    c3.714-11.649,5.626-23.865,5.626-36.328c0-0.032-0.004-0.063-0.005-0.094C375.462,256.874,375.467,256.843,375.467,256.811z"></path>			<path d="M357.449,193.879c-6.516-10.452-14.616-19.846-23.989-27.836c-3.587-3.057-8.973-2.628-12.03,0.959    c-3.057,3.587-2.628,8.973,0.959,12.03c8.041,6.854,14.99,14.913,20.577,23.876c2.493,3.999,7.756,5.22,11.756,2.727    C358.721,203.142,359.942,197.878,357.449,193.879z"></path>			<path d="M329.236,328.572c-7.386,7.557-15.896,13.939-25.22,18.899c-4.161,2.213-5.74,7.38-3.527,11.541s7.38,5.74,11.541,3.527    c10.878-5.786,20.8-13.228,29.411-22.037c3.294-3.37,3.233-8.773-0.138-12.067C337.933,325.14,332.53,325.202,329.236,328.572z"></path>			<path d="M248.972,154.837c2.29-0.155,4.593-0.234,6.905-0.237c8.431,0,16.619,0.988,24.565,2.933    c4.578,1.121,9.197-1.682,10.318-6.26c1.121-4.578-1.682-9.197-6.26-10.318c-9.274-2.27-18.824-3.422-28.633-3.422    c-2.7,0.003-5.381,0.095-8.048,0.276c-4.702,0.318-8.256,4.388-7.938,9.09C240.2,151.602,244.27,155.155,248.972,154.837z"></path>			<path d="M256,60.733c4.713,0,8.533-3.82,8.533-8.533v-8.533c0-4.713-3.82-8.533-8.533-8.533s-8.533,3.82-8.533,8.533V52.2    C247.467,56.913,251.287,60.733,256,60.733z"></path>			<path d="M256,111.933c4.713,0,8.533-3.82,8.533-8.533V86.333c0-4.713-3.82-8.533-8.533-8.533s-8.533,3.82-8.533,8.533V103.4    C247.467,108.113,251.287,111.933,256,111.933z"></path>			<path d="M256,402.067c-4.713,0-8.533,3.82-8.533,8.533v17.067c0,4.713,3.82,8.533,8.533,8.533s8.533-3.82,8.533-8.533V410.6    C264.533,405.887,260.713,402.067,256,402.067z"></path>			<path d="M256,453.267c-4.713,0-8.533,3.82-8.533,8.533v8.533c0,4.713,3.82,8.533,8.533,8.533s8.533-3.82,8.533-8.533V461.8    C264.533,457.087,260.713,453.267,256,453.267z"></path>			<path d="M460.8,265.533h8.533c4.713,0,8.533-3.82,8.533-8.533c0-4.713-3.82-8.533-8.533-8.533H460.8    c-4.713,0-8.533,3.821-8.533,8.533C452.267,261.713,456.087,265.533,460.8,265.533z"></path>			<path d="M409.6,265.533h17.067c4.713,0,8.533-3.82,8.533-8.533c0-4.713-3.82-8.533-8.533-8.533H409.6    c-4.713,0-8.533,3.821-8.533,8.533C401.067,261.713,404.887,265.533,409.6,265.533z"></path>			<path d="M102.4,248.467H85.333c-4.713,0-8.533,3.821-8.533,8.533c0,4.713,3.82,8.533,8.533,8.533H102.4    c4.713,0,8.533-3.82,8.533-8.533C110.933,252.287,107.113,248.467,102.4,248.467z"></path>			<path d="M51.2,248.467h-8.533c-4.713,0-8.533,3.821-8.533,8.533c0,4.713,3.82,8.533,8.533,8.533H51.2    c4.713,0,8.533-3.82,8.533-8.533C59.733,252.287,55.913,248.467,51.2,248.467z"></path>		</g>	</g></g><g></g><g></g><g></g><g></g><g></g><g></g><g></g><g></g><g></g><g></g><g></g><g></g><g></g><g></g><g></g></svg>