<svg xmlns="http://www.w3.org/2000/svg" fill="#be8553" xmlns:xlink="http://www.w3.org/1999/xlink" id="Capa_1" x="0px" y="0px" viewBox="0 0 58.195 58.195" style="enable-background:new 0 0 58.195 58.195;" xml:space="preserve">
	<g>
		<path d="M39.291,20.889l-2.193-2.191l1.414-1.415l2.193,2.191L39.291,20.889z M39.292,10.047l1.414,1.414l-2.191,2.191  l-1.414-1.414L39.292,10.047z M52.725,19.848l-1.569-1.568l1.414-1.414l1.569,1.568L52.725,19.848z M51.172,15.467l0.353-0.353  L50.111,13.7l-0.353,0.353l0,0l0,0L49.404,13.7l-1.414,1.414l0.354,0.353l-0.354,0.354l1.414,1.414l0.354-0.353l0.353,0.353  l1.414-1.414L51.172,15.467z M45.751,20.888l-1.414-1.414l2.191-2.191l1.414,1.414L45.751,20.888z M42.876,20.935l-0.354,0.354  l-0.353-0.354l-1.414,1.414l0.353,0.354l-0.353,0.353l1.414,1.414l0.353-0.353l0.354,0.353l1.414-1.414l-0.353-0.353l0.353-0.354  L42.876,20.935z M46.528,28.124l-2.191-2.191l1.414-1.414l2.191,2.191L46.528,28.124z M38.517,28.123l-1.414-1.414l2.191-2.191  l1.414,1.414L38.517,28.123z M36.701,29.938l0.354-0.354l-1.414-1.414l-0.354,0.354l-0.353-0.354l-1.414,1.414l0.353,0.354  l-0.353,0.354l1.414,1.414l0.353-0.354l0.354,0.354l1.414-1.414L36.701,29.938z M38.253,34.319l-1.567-1.568l1.414-1.414  l1.567,1.568L38.253,34.319z M31.283,24.517l2.193,2.191l-1.414,1.415l-2.193-2.191L31.283,24.517z M31.871,34.768l-1.414-1.414  l1.838-1.838l1.414,1.414L31.871,34.768z M24.636,27.532l-1.414-1.414l1.838-1.838l1.414,1.414L24.636,27.532z M25.084,18.321  l1.569,1.568l-1.414,1.414l-1.569-1.568L25.084,18.321z M28.405,20.935l-0.353,0.354l-0.354-0.354l-1.414,1.414l0.354,0.354  l-0.354,0.353l1.414,1.414l0.354-0.353l0.353,0.353l1.414-1.414l-0.353-0.353l0.353-0.354L28.405,20.935z M32.058,17.282  l1.414,1.414l-2.192,2.192l-1.414-1.414L32.058,17.282z M34.934,17.235l0.353-0.353l0.354,0.353l1.414-1.414l-0.354-0.354  l0.354-0.353L35.641,13.7l-0.354,0.353L34.934,13.7l-1.414,1.414l0.353,0.353l-0.353,0.354L34.934,17.235z M31.281,10.047  l2.191,2.191l-1.414,1.414l-2.191-2.191L31.281,10.047z M38.141,5.265l1.414-1.414l1.568,1.568l-1.414,1.414L38.141,5.265z   M45.938,3.402l1.414,1.414l-1.838,1.838L44.1,5.24L45.938,3.402z M42.876,6.464l-0.354,0.354l-0.353-0.354l-1.414,1.414  l0.353,0.354h0.001l-0.354,0.354L42.169,10l0.353-0.354L42.876,10l1.414-1.414l-0.353-0.354l0.353-0.354L42.876,6.464z   M46.528,13.652l-2.191-2.191l1.414-1.414l2.191,2.191L46.528,13.652z M52.75,13.889l-1.414-1.414l1.838-1.838l1.414,1.414  L52.75,13.889z M18.775,10.529c-0.01-0.111-0.029-0.219-0.043-0.328c-0.022-0.166-0.045-0.331-0.076-0.495  c-0.024-0.13-0.054-0.257-0.084-0.385c-0.033-0.142-0.069-0.283-0.109-0.423c-0.037-0.129-0.076-0.256-0.119-0.382  c-0.048-0.142-0.1-0.282-0.155-0.422c-0.044-0.113-0.088-0.226-0.137-0.336c-0.071-0.166-0.151-0.328-0.234-0.49  c-0.04-0.077-0.076-0.156-0.118-0.231c-0.266-0.484-0.574-0.947-0.928-1.378l-0.547-0.664l-0.04,0.024  c-1.63-1.632-3.882-2.644-6.365-2.644c-2.484,0-4.735,1.011-6.365,2.643l-0.04-0.022L2.868,5.659  C2.687,5.879,2.52,6.107,2.362,6.342C2.353,6.356,2.345,6.37,2.336,6.384c-0.14,0.21-0.272,0.426-0.394,0.647  c-0.046,0.084-0.087,0.171-0.13,0.256C1.733,7.441,1.656,7.595,1.587,7.753C1.536,7.868,1.491,7.985,1.445,8.102  c-0.053,0.136-0.104,0.271-0.15,0.409C1.251,8.64,1.211,8.771,1.173,8.903C1.134,9.039,1.099,9.177,1.067,9.315  c-0.031,0.13-0.061,0.26-0.086,0.392c-0.031,0.162-0.053,0.325-0.075,0.489c-0.015,0.111-0.033,0.22-0.044,0.332  c-0.027,0.281-0.043,0.563-0.043,0.847c0,0.308,0.016,0.614,0.046,0.916c0.004,0.028,0.01,0.055,0.013,0.083  c0.211,1.917,1.031,3.692,2.358,5.118c0.08,0.087,0.156,0.177,0.24,0.261c0.011,0.011,0.021,0.024,0.032,0.035l0.612,0.604  l0.037-0.028c1.548,1.257,3.517,2.013,5.662,2.013s4.114-0.757,5.662-2.013l0.038,0.028l0.612-0.604  c0.013-0.013,0.024-0.027,0.037-0.04c0.053-0.053,0.101-0.111,0.153-0.166c1.383-1.446,2.233-3.267,2.443-5.234  c0.002-0.019,0.006-0.036,0.008-0.055c0.03-0.303,0.046-0.608,0.046-0.917C18.818,11.092,18.802,10.81,18.775,10.529z   M4.223,15.563c-0.193-0.256-0.37-0.521-0.524-0.798c-0.026-0.047-0.051-0.095-0.076-0.143c-0.141-0.267-0.259-0.544-0.364-0.826  c-0.028-0.077-0.058-0.153-0.084-0.232c-0.1-0.304-0.179-0.616-0.236-0.933c-0.013-0.073-0.023-0.147-0.034-0.221  c-0.05-0.34-0.085-0.684-0.085-1.035c-0.001-0.296,0.024-0.591,0.061-0.883c0.009-0.073,0.022-0.145,0.033-0.217  c0.039-0.241,0.089-0.48,0.152-0.715c0.014-0.052,0.025-0.104,0.04-0.155c0.082-0.28,0.182-0.556,0.298-0.824  c0.022-0.05,0.048-0.097,0.071-0.146c0.098-0.212,0.208-0.419,0.328-0.62c0.025-0.042,0.05-0.084,0.076-0.126  c1.228,1.036,1.94,2.545,1.94,4.186c0,1.434-0.545,2.773-1.52,3.789C4.273,15.631,4.249,15.596,4.223,15.563z M9.819,18.375  c-1.527,0-2.937-0.497-4.089-1.331c1.333-1.386,2.089-3.209,2.089-5.169c0-2.206-1.003-4.292-2.663-5.706  c1.24-1.111,2.871-1.794,4.663-1.794s3.424,0.683,4.664,1.795c-1.661,1.414-2.664,3.5-2.664,5.705c0,1.96,0.756,3.783,2.09,5.169  C12.757,17.877,11.347,18.375,9.819,18.375z M16.735,12.41c-0.011,0.074-0.021,0.148-0.034,0.221  c-0.057,0.317-0.136,0.628-0.236,0.931c-0.027,0.08-0.058,0.159-0.087,0.238c-0.102,0.277-0.219,0.548-0.356,0.81  c-0.029,0.056-0.059,0.112-0.089,0.168c-0.15,0.269-0.322,0.526-0.509,0.775c-0.028,0.037-0.054,0.074-0.083,0.11  c-0.975-1.016-1.521-2.354-1.521-3.788c-0.001-1.64,0.711-3.148,1.939-4.185c0.028,0.045,0.056,0.09,0.083,0.136  c0.114,0.194,0.22,0.392,0.315,0.596c0.026,0.055,0.055,0.108,0.079,0.164c0.115,0.266,0.214,0.539,0.296,0.817  c0.016,0.053,0.027,0.108,0.042,0.161c0.063,0.234,0.113,0.471,0.151,0.711c0.012,0.072,0.024,0.144,0.033,0.217  c0.037,0.292,0.062,0.587,0.062,0.883C16.82,11.725,16.785,12.069,16.735,12.41z M57.313,8.721L57.313,8.721  c-0.666-1.853-1.684-3.472-3.025-4.813c-1.343-1.342-2.962-2.36-4.813-3.025c-3.804-1.367-8.383-1.141-12.894,0.64  c-3.272,1.292-6.396,3.367-9.03,6.002c-2.636,2.636-4.712,5.758-6.004,9.031c-1.659,4.208-1.95,8.468-0.874,12.112l-0.185,0.185  l0.214,0.596c0.056,0.155,0.133,0.301,0.194,0.455c-1.177,2.783-4.828,6.557-7.198,8.936c-1.124-0.492-2.529-0.299-3.421,0.594  l-8.554,8.553c-2.297,2.298-2.297,6.036,0.001,8.335l0.151,0.151l0,0c1.149,1.148,2.657,1.723,4.166,1.722  c1.509,0,3.019-0.574,4.167-1.723l8.554-8.553c0.927-0.927,1.121-2.303,0.603-3.43c2.213-2.2,6.284-6.125,9.077-7.243  c0.034,0.012,0.065,0.03,0.099,0.042l0.597,0.215l0.072-0.072c1.513,0.486,3.133,0.74,4.822,0.74c2.455,0,5.043-0.51,7.607-1.522  c3.272-1.292,6.396-3.368,9.03-6.003c2.636-2.636,4.712-5.759,6.004-9.031C58.452,17.105,58.68,12.526,57.313,8.721z   M17.349,46.504l-8.554,8.553c-1.471,1.471-4.035,1.471-5.506,0l-0.151-0.151c-1.518-1.518-1.518-3.988,0-5.506l8.554-8.553  c0.198-0.198,0.462-0.307,0.742-0.307c0.279,0,0.543,0.109,0.741,0.307l1.325,1.324l2.851,2.851  C17.757,45.432,17.757,46.096,17.349,46.504z M18.091,42.934l-0.815-0.814l-2.016-2.016c2.649-2.674,5.359-5.576,6.846-8.165  c0.188,0.306,0.397,0.596,0.609,0.883l-0.146,0.11c0.353,0.468,0.741,0.916,1.156,1.331c0.415,0.416,0.862,0.805,1.329,1.156  l0.08-0.107c0.362,0.28,0.737,0.542,1.129,0.783C23.431,37.732,20.244,40.795,18.091,42.934z M55.274,19.57l-0.091-0.091  l-1.414,1.414l0.727,0.727c-1.095,2.502-2.684,4.891-4.651,6.991l-0.441-0.441l-1.414,1.414l0.436,0.436  c-2.129,1.951-4.547,3.513-7.068,4.574l-0.645-0.645l-1.389,1.39c-3.166,0.97-6.279,1.082-8.995,0.337l-1.097-1.097l-0.518,0.518  c-0.599-0.26-1.167-0.555-1.692-0.896c-0.059-0.039-0.115-0.082-0.173-0.122c-0.235-0.16-0.467-0.324-0.686-0.5  c-0.283-0.23-0.558-0.471-0.816-0.729c-0.26-0.26-0.502-0.536-0.733-0.821c-0.164-0.205-0.317-0.422-0.467-0.64  c-0.052-0.074-0.107-0.145-0.156-0.221c-0.187-0.289-0.364-0.588-0.526-0.899c-0.002-0.004-0.005-0.008-0.007-0.013  c-0.169-0.324-0.326-0.661-0.468-1.009L22.971,29.2l0.441-0.441l-0.892-0.892c-0.794-2.893-0.601-6.24,0.552-9.621l0.969-0.969  l-0.44-0.44c1.061-2.521,2.623-4.939,4.574-7.068L28.405,10l1.414-1.414L29.583,8.35c2.1-1.967,4.489-3.557,6.992-4.651  l0.521,0.521l1.164-1.164c2.015-0.689,4.021-1.057,5.926-1.057c1.091,0,2.143,0.124,3.15,0.352l1.24,1.24l0.648-0.648  c1.39,0.562,2.622,1.352,3.649,2.378c0.953,0.954,1.702,2.087,2.256,3.359l-0.732,0.732l1.414,1.414l0.024-0.024  C56.455,13.475,56.26,16.505,55.274,19.57z">
		</path>
	</g>
	<g>
	</g>
	<g>
	</g>
	<g>
	</g>
	<g>
	</g>
	<g>
	</g>
	<g>
	</g>
	<g>
	</g>
	<g>
	</g>
	<g>
	</g>
	<g>
	</g>
	<g>
	</g>
	<g>
	</g>
	<g>
	</g>
	<g>
	</g>
	<g>
	</g>
</svg>
