<svg width="23" height="18" viewBox="0 0 23 18" fill="none" xmlns="http://www.w3.org/2000/svg">
<path d="M19.7332 0H2.76675C2.03321 0.000794094 1.32993 0.292545 0.811239 0.811239C0.292545 1.32993 0.000794094 2.03321 0 2.76675V15.2333C0.000794094 15.9668 0.292545 16.6701 0.811239 17.1888C1.32993 17.7075 2.03321 17.9992 2.76675 18H19.7332C20.4668 17.9992 21.1701 17.7075 21.6888 17.1888C22.2075 16.6701 22.4992 15.9668 22.5 15.2333V2.76675C22.4992 2.03321 22.2075 1.32993 21.6888 0.811239C21.1701 0.292545 20.4668 0.000794094 19.7332 0ZM2.76675 1.5H19.7332C20.0691 1.5004 20.3911 1.63399 20.6285 1.87146C20.866 2.10894 20.9996 2.43091 21 2.76675V3.3405L11.25 9.60825L1.5 3.3405V2.76675C1.5004 2.43091 1.63399 2.10894 1.87146 1.87146C2.10894 1.63399 2.43091 1.5004 2.76675 1.5ZM19.7332 16.5H2.76675C2.43091 16.4996 2.10894 16.366 1.87146 16.1285C1.63399 15.8911 1.5004 15.5691 1.5 15.2333V5.124L10.8442 11.1307C10.9653 11.2086 11.1061 11.25 11.25 11.25C11.3939 11.25 11.5347 11.2086 11.6558 11.1307L21 5.124V15.2333C20.9996 15.5691 20.866 15.8911 20.6285 16.1285C20.3911 16.366 20.0691 16.4996 19.7332 16.5Z" fill="#BE8553"/>
</svg>
