<svg xmlns="http://www.w3.org/2000/svg" fill="#BE8553" xmlns:xlink="http://www.w3.org/1999/xlink" id="Layer_1" x="0px" y="0px" viewBox="0 0 489.127 489.127" style="enable-background:new 0 0 489.127 489.127;" xml:space="preserve"><g>	<g>		<g>			<path d="M0,2.483v14.999h172.18v34.91h-34.938V97.34h9.226l-8.066,13.443l-22.054,33.08l13.333,33.334h42.524v-29.35l7.474-7.473    l7.473,7.473v29.35h42.525l13.332-33.334l-22.053-33.08L212.89,97.34h9.227V52.393H187.18v-34.91h184.644v34.91h-34.938V97.34    h9.226l-8.066,13.443l-22.054,33.08l13.333,33.334h42.524v-29.35l7.474-7.473l7.473,7.473v29.35h42.525l13.332-33.334    l-22.054-33.08l-8.066-13.443h9.228V52.393h-34.938v-34.91h102.304v-15H0z M226.153,145.619l-6.631,16.578h-17.369v-20.563    l-22.473-22.473l-22.474,22.473v20.563h-17.368l-6.632-16.578l17.776-26.664L163.96,97.34h31.438l12.789,21.313L226.153,145.619z     M207.117,67.393V82.34h-54.875V67.393H207.117z M425.796,145.619l-6.631,16.578h-17.369v-20.563l-22.473-22.473l-22.474,22.473    v20.563h-17.368l-6.632-16.578l17.776-26.664l12.978-21.615h31.438l12.789,21.313L425.796,145.619z M406.761,67.393V82.34    h-54.875V67.393H406.761z"></path>			<rect x="274.51" y="351.858" width="19.965" height="15"></rect>			<rect x="354.367" y="351.858" width="19.965" height="15"></rect>			<rect x="434.225" y="351.858" width="19.965" height="15"></rect>			<rect x="194.652" y="351.858" width="19.965" height="15"></rect>			<rect x="114.795" y="351.858" width="19.965" height="15"></rect>			<rect x="34.938" y="351.858" width="19.965" height="15"></rect>			<path d="M476.663,197.135h-0.001H331.895v89.84h-14.947v-89.84H172.18v89.84h-14.947v-89.84H12.465v89.84H2.482v82.366    c0,15.144,12.32,27.464,27.464,27.464h12.465v89.84h44.946v-89.84H401.77v89.84h44.946v-89.84h12.465    c15.144,0,27.464-12.32,27.464-27.464v-82.366h-9.982V197.135z M391.814,212.135L391.814,212.135h24.929v34.911h-24.929V212.135z     M346.895,212.135h29.92v49.911h54.929v-49.911h29.919v74.84H346.895V212.135z M232.1,212.135h24.929v34.911H232.1V212.135z     M187.18,212.135h29.92v49.911h54.929v-49.911h29.919v74.84H187.18V212.135z M72.385,212.135h24.929v34.911H72.385V212.135z     M27.465,212.135h29.92v49.911h54.929v-49.911h29.919v74.84H27.465V212.135z M72.357,471.645H57.411v-74.84h14.946V471.645z     M431.716,471.645H416.77v-74.84h14.946V471.645z M471.642,369.341c0.003,6.873-5.588,12.464-12.461,12.464H29.946    c-6.873,0-12.464-5.591-12.464-12.464v-32.429h59.866v32.429h15v-32.429h64.857v32.429h15v-32.429h64.857v32.429h15v-32.429    h64.857v32.429h15v-32.429h64.857v32.429h15v-32.429h59.866V369.341z M471.644,321.913H17.482v-19.938h2.482h449.198h2.482    V321.913z"></path>		</g>	</g></g><g></g><g></g><g></g><g></g><g></g><g></g><g></g><g></g><g></g><g></g><g></g><g></g><g></g><g></g><g></g></svg>