<svg width="14" height="22" viewBox="0 0 14 22" fill="none" xmlns="http://www.w3.org/2000/svg">
<path d="M8.61524 1.8335H6.41523C6.11127 1.8335 5.86523 2.07954 5.86523 2.3835C5.86523 2.68746 6.11127 2.9335 6.41523 2.9335H8.61524C8.9192 2.9335 9.16523 2.68746 9.16523 2.3835C9.16523 2.07954 8.9192 1.8335 8.61524 1.8335Z" fill="#BE8553"/>
<path d="M11 0H2.2C0.987078 0 0 0.987078 0 2.2V19.8C0 21.0129 0.987078 22 2.2 22H11C12.2129 22 13.2 21.0129 13.2 19.8V2.2C13.2 0.987078 12.2129 0 11 0ZM12.1 19.8C12.1 20.4076 11.6076 20.9 11 20.9H2.2C1.59242 20.9 1.1 20.4076 1.1 19.8V2.2C1.1 1.59242 1.59242 1.1 2.2 1.1H11C11.6076 1.1 12.1 1.59242 12.1 2.2V19.8Z" fill="#BE8553"/>
<path d="M6.6 20.1666C7.20751 20.1666 7.7 19.6741 7.7 19.0666C7.7 18.459 7.20751 17.9666 6.6 17.9666C5.99249 17.9666 5.5 18.459 5.5 19.0666C5.5 19.6741 5.99249 20.1666 6.6 20.1666Z" fill="#BE8553"/>
<path d="M4.58516 2.9335C4.88891 2.9335 5.13516 2.68725 5.13516 2.3835C5.13516 2.07974 4.88891 1.8335 4.58516 1.8335C4.2814 1.8335 4.03516 2.07974 4.03516 2.3835C4.03516 2.68725 4.2814 2.9335 4.58516 2.9335Z" fill="#BE8553"/>
</svg>
