<svg width="17" height="20" viewBox="0 0 17 20" fill="none" xmlns="http://www.w3.org/2000/svg">
<path d="M8.21661 9.63409C9.54016 9.63409 10.6861 9.15939 11.6227 8.22281C12.559 7.28638 13.0338 6.14059 13.0338 4.81689C13.0338 3.49365 12.5591 2.34772 11.6225 1.41098C10.6859 0.474701 9.54001 0 8.21661 0C6.89291 0 5.74713 0.474701 4.8107 1.41113C3.87427 2.34756 3.39941 3.4935 3.39941 4.81689C3.39941 6.14059 3.87427 7.28653 4.8107 8.22296C5.74744 9.15924 6.89337 9.63409 8.21661 9.63409ZM5.63956 2.23984C6.35809 1.5213 7.20099 1.17203 8.21661 1.17203C9.23209 1.17203 10.0751 1.5213 10.7938 2.23984C11.5124 2.95853 11.8618 3.80157 11.8618 4.81689C11.8618 5.83252 11.5124 6.67542 10.7938 7.3941C10.0751 8.11279 9.23209 8.46207 8.21661 8.46207C7.20129 8.46207 6.3584 8.11264 5.63956 7.3941C4.92087 6.67557 4.57144 5.83252 4.57144 4.81689C4.57144 3.80157 4.92087 2.95853 5.63956 2.23984Z" fill="#BE8553"/>
<path d="M16.6457 15.3789C16.6187 14.9892 16.564 14.5641 16.4836 14.1151C16.4024 13.6629 16.2979 13.2353 16.1728 12.8445C16.0434 12.4406 15.8678 12.0418 15.6503 11.6595C15.425 11.2628 15.1601 10.9174 14.8628 10.6331C14.552 10.3357 14.1714 10.0966 13.7314 9.92218C13.2928 9.74869 12.8069 9.6608 12.287 9.6608C12.0828 9.6608 11.8854 9.74457 11.5041 9.99283C11.2694 10.1459 10.9949 10.3229 10.6885 10.5186C10.4265 10.6856 10.0716 10.842 9.63318 10.9836C9.20547 11.122 8.77121 11.1922 8.34244 11.1922C7.91397 11.1922 7.47971 11.122 7.0517 10.9836C6.61377 10.8421 6.2587 10.6857 5.99716 10.5188C5.69366 10.3249 5.41901 10.1479 5.18082 9.99268C4.7998 9.74442 4.60236 9.66064 4.39819 9.66064C3.87817 9.66064 3.39233 9.74869 2.95395 9.92233C2.51419 10.0964 2.13348 10.3355 1.82236 10.6332C1.52512 10.9177 1.26022 11.263 1.035 11.6595C0.817871 12.0418 0.64209 12.4405 0.512695 12.8447C0.387726 13.2355 0.283203 13.6629 0.202026 14.1151C0.12146 14.5634 0.0669861 14.9887 0.039978 15.3793C0.0134277 15.7613 0 16.1588 0 16.5604C0 17.6044 0.331879 18.4496 0.986328 19.0729C1.63269 19.688 2.48779 19.9998 3.52798 19.9998H13.1581C14.198 19.9998 15.0531 19.688 15.6996 19.0729C16.3542 18.45 16.6861 17.6045 16.6861 16.5602C16.6859 16.1572 16.6724 15.7597 16.6457 15.3789ZM14.8915 18.2237C14.4644 18.6302 13.8974 18.8278 13.158 18.8278H3.52798C2.78839 18.8278 2.22137 18.6302 1.79443 18.2239C1.37558 17.8252 1.17203 17.2809 1.17203 16.5604C1.17203 16.1856 1.18439 15.8156 1.20911 15.4604C1.23322 15.1118 1.2825 14.729 1.35559 14.3222C1.42776 13.9204 1.51962 13.5434 1.62888 13.2021C1.7337 12.8748 1.87668 12.5507 2.05399 12.2385C2.22321 11.9409 2.41791 11.6856 2.63275 11.4799C2.83371 11.2875 3.08701 11.1301 3.38547 11.012C3.6615 10.9027 3.97171 10.8429 4.30847 10.8339C4.34952 10.8557 4.42261 10.8974 4.54102 10.9746C4.78195 11.1316 5.05966 11.3107 5.36667 11.5068C5.71274 11.7274 6.1586 11.9267 6.69128 12.0987C7.23587 12.2748 7.79129 12.3642 8.34259 12.3642C8.89389 12.3642 9.44946 12.2748 9.99374 12.0988C10.5269 11.9266 10.9726 11.7274 11.3191 11.5065C11.6333 11.3057 11.9032 11.1317 12.1442 10.9746C12.2626 10.8975 12.3357 10.8557 12.3767 10.8339C12.7136 10.8429 13.0238 10.9027 13.3 11.012C13.5983 11.1301 13.8516 11.2877 14.0526 11.4799C14.2674 11.6855 14.4621 11.9408 14.6313 12.2386C14.8088 12.5507 14.9519 12.8749 15.0566 13.2019C15.166 13.5437 15.258 13.9206 15.33 14.3221C15.403 14.7296 15.4524 15.1126 15.4765 15.4605V15.4608C15.5014 15.8147 15.5139 16.1845 15.5141 16.5604C15.5139 17.281 15.3104 17.8252 14.8915 18.2237Z" fill="#BE8553"/>
</svg>
